<svg width="1920" height="943" viewBox="0 0 1920 943" fill="none" xmlns="http://www.w3.org/2000/svg">
<path fill-rule="evenodd" clip-rule="evenodd" d="M1058.26 157.669C1054.22 151.806 1045.49 139.198 1040.41 136.743C1039.87 156.979 1088.35 213.399 1104.75 230.366C1111.83 237.815 1118.27 245.871 1123.45 251.058L1183.82 307.05C1295.1 410.867 1434.64 499.844 1553.92 599.492C1588.42 628.326 1648.82 685.225 1666.02 722.265C1668.68 728.639 1673.92 745.551 1676.58 749.619C1679.28 744.403 1680.04 721.712 1678.9 714.376C1677.11 702.747 1672.5 694.509 1668.16 686.109C1639.26 630.365 1548.11 556.359 1459.25 492.159C1343.82 408.785 1207.87 326.928 1111.54 222.089C1099.29 208.805 1069.66 174.25 1058.26 157.669Z" fill="white" fill-opacity="0.03"/>
<path fill-rule="evenodd" clip-rule="evenodd" d="M1667.16 558.68C1669.07 554.764 1664.92 537.753 1664.38 528.857C1663.52 513.019 1648.71 493.061 1637.72 482.991C1630.67 476.532 1623.95 470.851 1618.48 466.079C1584.92 436.763 1527.54 402.622 1487.37 380.04C1364.33 307.882 1143.22 196.767 1062.9 81.0175C1054.24 68.5197 1042.6 44.7656 1039.17 40.2132C1037.6 38.2142 1035.88 36.3332 1034.04 34.5851C1033.61 46.3656 1037.13 52.4215 1041.87 62.4226C1059.64 99.9296 1107.26 150.004 1167.78 198.202C1296.61 300.861 1483.89 408.197 1565.97 460.131C1597.73 481.9 1640.44 515.034 1659.81 548.513C1662.48 553.162 1665.24 557.617 1667.16 558.68Z" fill="white" fill-opacity="0.03"/>
<path fill-rule="evenodd" clip-rule="evenodd" d="M1678.15 646.741C1682.22 639.264 1674.4 611.346 1670.47 602.242C1655.98 568.584 1611.37 534.731 1587.35 514.121C1575.36 504.024 1562.81 494.589 1549.78 485.858C1442.57 412.747 1332.13 345.511 1224.58 271.256C1185.83 244.494 1121.3 193.275 1090.92 156.085C1067.21 127.047 1037.52 83.9121 1034.66 81.1256C1029.68 92.0233 1081.12 159.396 1091.5 171.493C1145.47 234.424 1249.12 308.459 1317.48 355.32C1404.95 415.269 1490.76 476.476 1576.31 539.172C1601.1 559.258 1642.05 598.379 1663.6 627.318C1667.37 632.369 1673.78 645.35 1678.15 646.741Z" fill="white" fill-opacity="0.03"/>
<path fill-rule="evenodd" clip-rule="evenodd" d="M1644.94 459.469C1646.33 457.317 1646.33 454.285 1646.11 451.84C1644.81 439.426 1634.15 421.024 1627.35 413.121C1564.41 339.858 1311.01 237.612 1209.43 168.723C1168.27 140.803 1093.57 90.8389 1064.93 49.0828C1060.57 42.7236 1056.44 36.2539 1051.85 29.1635C1044.56 17.9348 1043.57 11.0376 1037.17 7.75446C1037.98 12.9136 1042.73 25.3149 1047.43 36.3642C1067.36 83.238 1109.01 113.71 1147.51 145.603C1296.18 268.995 1488.3 320.187 1644.94 459.469Z" fill="white" fill-opacity="0.03"/>
<path fill-rule="evenodd" clip-rule="evenodd" d="M1083.58 237.263C1078.03 230.656 1071.66 220.103 1063.87 217.786C1064.34 228.683 1073.37 237.774 1078.61 243.816C1097.18 265.156 1099.69 271.501 1123.22 296.649L1190.37 364.726C1228.08 402.231 1272.59 438.471 1314.69 471.605C1400.49 542.606 1483.23 609.55 1564.48 685.669C1584.42 704.36 1624.18 747.897 1636.04 768.063C1650.67 792.893 1661.97 811.214 1670.24 838.209C1672.07 844.224 1671.12 842.981 1673.43 846.306L1675.23 807.681C1674.58 771.899 1627.29 717.408 1582.4 674.191C1543.14 636.394 1486.85 587.729 1443.56 554.965C1415.54 533.735 1336.51 466.682 1313.72 451.879L1218.8 373.926C1168.96 327.245 1129.37 288.883 1083.58 237.263Z" fill="white" fill-opacity="0.03"/>
<path fill-rule="evenodd" clip-rule="evenodd" d="M1139.55 349.359C1132.61 342.103 1111.23 315.383 1102.93 311.452C1105.43 350.946 1423.81 634.573 1479.09 685.697C1498.26 703.011 1516.41 721.395 1533.46 740.765C1567.19 778.548 1613.29 829.686 1635.22 872.959C1648.45 898.961 1651.65 942.027 1659.16 955.354C1663.32 950.374 1668.09 923.762 1667.11 915.349C1666.04 906.009 1662.04 892.52 1657.3 879.193C1643.33 839.949 1632.75 826.016 1607.56 793.185C1561.21 732.806 1477.86 654.715 1416.91 604.806L1314.4 515.667C1253.63 463.012 1195.58 407.172 1139.55 349.359Z" fill="white" fill-opacity="0.03"/>
<path fill-rule="evenodd" clip-rule="evenodd" d="M1622.52 378.37C1620.62 351.084 1597.73 324.902 1573.26 310.377C1452.06 238.08 1321.44 192.792 1197.16 121.392C1137.19 87.0297 1088.96 60.7923 1051.39 2.7589C1050.65 1.74963 1049.79 0.824456 1048.85 0C1048.6 0.363885 1048.46 0.788413 1048.43 1.22771C1047.92 12.9255 1059.03 30.3479 1066.15 38.4315C1088.11 63.2615 1102.87 75.1387 1129.15 94.9891C1219.61 163.3 1333.71 214.629 1434.61 267.973C1484.1 291.823 1555.76 324.695 1598.44 357.528C1612.16 368.15 1617.17 376.824 1622.52 378.37Z" fill="white" fill-opacity="0.03"/>
<path fill-rule="evenodd" clip-rule="evenodd" d="M1205.62 471.95C1191.29 458.419 1197.5 459.011 1187.76 455.218C1188.08 466.143 1194.37 473.151 1200.37 478.67C1217.03 494.022 1233.44 510.811 1249.99 526.494C1265.9 541.585 1281.76 557.3 1297.53 573.148C1331.16 606.958 1364.48 641.846 1398.25 674.36C1503.63 772.078 1611.26 901.884 1638 1045.2C1651.43 1039.57 1649.5 1001.05 1645.39 988.1C1632.11 946.302 1613.12 908.713 1590.38 873.523C1536.63 790.163 1466.59 718.584 1394.46 650.978C1374.76 632.52 1351.42 610.973 1341.05 600.559L1205.62 471.95Z" fill="white" fill-opacity="0.03"/>
<path fill-rule="evenodd" clip-rule="evenodd" d="M2346.39 157.669C2350.43 151.806 2359.16 139.198 2364.24 136.743C2364.78 156.979 2316.3 213.399 2299.9 230.421C2292.78 237.815 2286.38 245.871 2281.2 251.03L2220.83 307.022C2109.58 410.867 1970.01 499.844 1850.73 599.534C1816.23 628.364 1755.84 685.267 1738.63 722.307C1735.97 728.678 1730.73 745.59 1728.07 749.661C1725.37 744.445 1724.61 721.754 1725.75 714.414C1727.54 702.789 1732.15 694.551 1736.5 686.151C1765.39 630.27 1856.54 556.331 1945.4 492.131C2060.83 408.785 2196.79 326.928 2293.11 222.089C2305.32 208.805 2334.99 174.25 2346.39 157.669Z" fill="white" fill-opacity="0.03"/>
<path fill-rule="evenodd" clip-rule="evenodd" d="M1737.54 558.68C1735.62 554.764 1739.77 537.753 1740.31 528.857C1741.17 513.019 1755.99 493.061 1766.97 482.991C1774.02 476.532 1780.75 470.851 1786.22 466.079C1819.77 436.763 1877.16 402.622 1917.32 380.04C2040.32 307.882 2261.4 196.767 2341.75 81.0175C2350.41 68.5197 2362.05 44.7656 2365.48 40.2132C2367.02 38.2163 2368.7 36.3353 2370.52 34.5851C2371.09 46.3656 2367.52 52.4215 2362.75 62.4226C2344.99 99.9296 2297.36 150.004 2236.84 198.202C2107.99 300.861 1920.71 408.197 1838.64 460.131C1806.88 481.9 1764.17 515.034 1744.8 548.513C1742.13 553.162 1739.35 557.617 1737.54 558.68Z" fill="white" fill-opacity="0.03"/>
<path fill-rule="evenodd" clip-rule="evenodd" d="M1726.5 646.741C1722.43 639.264 1730.25 611.346 1734.17 602.242C1748.67 568.584 1793.28 534.731 1817.3 514.121C1829.29 504.024 1841.83 494.589 1854.87 485.858C1962.09 412.747 2072.52 345.511 2180.07 271.256C2218.83 244.494 2283.37 193.275 2313.73 156.085C2337.44 127.047 2367.13 83.9121 2369.99 81.1256C2374.97 92.0234 2323.53 159.396 2313.15 171.493C2259.18 234.424 2155.53 308.459 2087.17 355.32C1999.7 415.269 1913.89 476.476 1828.34 539.172C1803.56 559.258 1762.6 598.379 1741.05 627.318C1737.29 632.369 1730.87 645.35 1726.5 646.741Z" fill="white" fill-opacity="0.03"/>
<path fill-rule="evenodd" clip-rule="evenodd" d="M1759.61 459.469C1758.22 457.317 1758.22 454.285 1758.44 451.84C1759.73 439.426 1770.4 421.024 1777.2 413.121C1840.25 339.858 2093.59 237.612 2195.21 168.723C2236.45 140.803 2311.08 90.8389 2339.72 49.0828C2344.1 42.7236 2348.22 36.2539 2352.8 29.1635C2360.09 17.9348 2361.13 11.0376 2367.48 7.75446C2366.67 12.9136 2361.92 25.3149 2357.22 36.3642C2337.36 83.2658 2295.56 113.71 2257.14 145.603C2108.47 268.995 1916.36 320.187 1759.61 459.469Z" fill="white" fill-opacity="0.03"/>
<path fill-rule="evenodd" clip-rule="evenodd" d="M2321.11 237.263C2326.66 230.656 2333.03 220.103 2340.82 217.786C2340.35 228.683 2331.32 237.774 2326.07 243.816C2307.53 265.156 2305.01 271.501 2281.47 296.649L2214.2 364.765C2176.5 402.273 2131.97 438.513 2089.88 471.647C2004.07 542.645 1921.34 609.593 1840.08 685.711C1820.15 704.402 1780.38 747.936 1768.52 768.106C1753.89 792.935 1742.59 811.252 1734.33 838.251C1732.5 844.263 1733.44 843.023 1731.13 846.348L1729.33 807.723C1729.98 771.941 1777.29 717.45 1822.16 674.233C1861.42 636.436 1917.71 587.767 1961 555.007C1989.04 533.777 2068.05 466.72 2090.85 451.921L2185.76 373.968C2235.69 327.245 2275.29 288.883 2321.11 237.263Z" fill="white" fill-opacity="0.03"/>
<path fill-rule="evenodd" clip-rule="evenodd" d="M2265.01 349.359C2271.95 342.144 2293.37 315.383 2301.68 311.452C2299.18 350.946 1980.8 634.549 1925.51 685.697C1906.39 703.014 1888.27 721.398 1871.25 740.765C1837.53 778.618 1791.43 829.753 1769.43 873.026C1756.19 899.028 1753 942.097 1745.49 955.421C1741.32 950.441 1736.56 923.833 1737.53 915.419C1738.6 906.079 1742.6 892.586 1747.35 879.263C1761.36 840.015 1771.94 826.083 1797.12 793.294C1843.49 732.901 1926.79 654.81 1987.71 604.901L2090.22 515.762C2151.02 463.012 2209.08 407.172 2265.01 349.359Z" fill="white" fill-opacity="0.03"/>
<path fill-rule="evenodd" clip-rule="evenodd" d="M1782.13 378.37C1784.04 351.084 1806.97 324.902 1831.39 310.349C1952.59 238.08 2083.11 192.792 2207.49 121.364C2267.47 87.0022 2315.69 60.7648 2353.27 2.73131C2354.02 1.73232 2354.87 0.816528 2355.81 0C2356.08 0.358229 2356.22 0.786141 2356.23 1.22771C2356.77 12.9255 2345.65 30.3479 2338.52 38.4731C2316.55 63.3031 2301.79 75.1803 2275.51 95.0303C2185.05 163.341 2070.95 214.67 1970.05 268.014C1920.56 291.865 1848.9 324.737 1806.22 357.566C1792.49 368.15 1787.53 376.824 1782.13 378.37Z" fill="white" fill-opacity="0.03"/>
<path fill-rule="evenodd" clip-rule="evenodd" d="M2199.03 471.95C2213.36 458.419 2207.15 459.011 2216.89 455.218C2216.57 466.143 2210.28 473.151 2204.28 478.67C2187.62 494.022 2171.22 510.811 2154.66 526.494C2138.72 541.599 2122.89 557.271 2107.12 573.162C2073.53 607.015 2040.17 641.86 2006.4 674.374C1901.02 772.078 1793.39 901.884 1766.72 1045.2C1753.29 1039.57 1755.22 1001.05 1759.33 988.1C1772.68 946.302 1791.64 908.713 1814.33 873.523C1868.07 790.163 1938.12 718.584 2010.25 650.978C2029.95 632.52 2053.29 610.973 2063.66 600.559L2199.03 471.95Z" fill="white" fill-opacity="0.03"/>
<path fill-rule="evenodd" clip-rule="evenodd" d="M906.636 418.003C913.218 408.447 927.45 387.895 935.729 383.893C936.613 416.879 857.605 508.844 830.885 536.591C819.274 548.643 808.846 561.775 800.405 570.184L702.033 661.452C520.733 830.72 293.302 975.755 98.9301 1138.25C42.7058 1185.25 -55.7126 1278 -83.7497 1338.37C-88.0915 1348.76 -96.6194 1376.33 -100.967 1382.96C-105.355 1374.46 -106.596 1337.47 -104.743 1325.51C-101.827 1306.56 -94.3157 1293.13 -87.2313 1279.44C-40.1468 1188.35 108.387 1067.83 253.192 963.182C441.299 827.328 662.847 693.899 819.817 523.01C839.707 501.356 888.056 445.031 906.636 418.003Z" fill="white" fill-opacity="0.03"/>
<path fill-rule="evenodd" clip-rule="evenodd" d="M-85.5338 1071.66C-88.6574 1065.28 -81.8906 1037.55 -81.013 1023.05C-79.61 997.231 -55.4644 964.698 -37.5717 948.285C-26.0763 937.757 -15.1236 928.497 -6.20897 920.718C48.4737 872.932 141.985 817.282 207.441 780.472C407.881 662.854 768.142 481.735 899.072 293.06C913.195 272.688 932.156 233.969 937.745 226.548C940.25 223.293 942.993 220.227 945.955 217.374C946.884 236.577 941.07 246.448 933.305 262.75C904.349 323.887 826.739 405.509 728.119 484.073C518.153 651.409 212.961 826.369 79.2244 911.022C27.4575 946.506 -42.1387 1000.51 -73.7035 1055.09C-78.0453 1062.66 -82.5719 1069.93 -85.5338 1071.66Z" fill="white" fill-opacity="0.03"/>
<path fill-rule="evenodd" clip-rule="evenodd" d="M-103.525 1215.2C-110.153 1203.01 -97.4162 1157.51 -91.0132 1142.67C-67.393 1087.8 5.30365 1032.62 44.4436 999.028C63.9875 982.569 84.4265 967.189 105.668 952.958C280.386 833.786 460.346 724.19 635.601 603.152C698.771 559.53 803.933 476.042 853.414 415.422C892.057 368.09 940.435 297.778 945.095 293.236C953.218 311 869.39 420.818 852.467 440.537C764.522 543.116 595.624 663.795 484.215 740.178C341.674 837.897 201.852 937.665 62.4345 1039.86C22.0474 1072.6 -44.6966 1136.37 -79.8122 1183.54C-85.9439 1191.77 -96.3942 1212.93 -103.525 1215.2Z" fill="white" fill-opacity="0.03"/>
<path fill-rule="evenodd" clip-rule="evenodd" d="M-49.5637 909.943C-51.827 906.435 -51.8269 901.492 -51.4632 897.508C-49.3616 877.272 -31.9828 847.277 -20.8973 834.395C81.8457 714.975 494.688 548.313 660.284 436.021C727.484 390.511 849.095 309.069 895.77 241.006C902.901 230.64 909.615 220.095 917.086 208.537C928.963 190.234 930.66 178.991 941.001 173.64C939.685 182.049 931.948 202.264 924.281 220.274C891.925 296.725 823.801 346.35 761.197 398.336C518.921 599.467 205.876 682.91 -49.5637 909.943Z" fill="white" fill-opacity="0.03"/>
<path fill-rule="evenodd" clip-rule="evenodd" d="M865.435 547.744C874.482 536.974 884.869 519.772 897.56 515.995C896.792 533.758 882.086 548.576 873.53 558.425C843.304 593.209 839.211 603.553 800.839 644.543L691.219 755.574C629.787 816.713 557.229 875.785 488.632 929.794C348.804 1045.52 213.983 1154.65 81.5744 1278.72C49.0858 1309.19 -15.7124 1380.15 -35.037 1413.03C-58.8824 1453.5 -77.3005 1483.36 -90.759 1527.36C-93.7498 1537.16 -92.2082 1535.14 -95.9669 1540.56L-98.9056 1477.6C-97.8433 1419.28 -20.7586 1330.46 52.3653 1260.01C116.349 1198.4 208.076 1119.07 278.619 1065.67C324.301 1031.07 453.06 921.763 490.214 897.64L644.88 770.575C726.243 694.416 790.769 631.884 865.435 547.744Z" fill="white" fill-opacity="0.03"/>
<path fill-rule="evenodd" clip-rule="evenodd" d="M774.02 730.462C785.336 718.702 820.244 675.081 833.778 668.673C829.701 733.048 310.883 1195.33 220.79 1278.7C189.617 1306.93 160.097 1336.89 132.366 1368.46C77.4115 1430.16 2.29553 1513.51 -33.5649 1584.05C-55.1297 1626.43 -60.3318 1696.64 -72.572 1718.35C-79.3619 1710.24 -87.1218 1666.86 -85.5398 1653.15C-83.7961 1637.93 -77.2775 1615.93 -69.5408 1594.22C-46.7116 1530.24 -29.4714 1507.53 11.5681 1454.08C87.117 1355.64 222.868 1228.35 322.147 1147L489.192 1001.7C588.268 915.718 682.888 824.698 774.02 730.462Z" fill="white" fill-opacity="0.03"/>
<path fill-rule="evenodd" clip-rule="evenodd" d="M-12.8602 777.751C-9.75975 733.274 27.6134 690.597 67.4115 666.875C264.912 549.075 477.61 475.255 680.29 358.826C778.033 302.815 856.607 260.048 917.854 165.452C919.073 163.824 920.458 162.331 921.994 161C922.421 161.584 922.658 162.281 922.675 163.001C923.559 182.069 905.435 210.468 893.807 223.712C858.01 264.185 833.962 283.545 791.133 315.901C643.725 427.249 457.794 510.917 293.371 597.867C212.712 636.745 95.9451 690.327 26.3951 743.84C4.01627 761.091 -4.06111 775.23 -12.8602 777.751Z" fill="white" fill-opacity="0.03"/>
<path fill-rule="evenodd" clip-rule="evenodd" d="M666.508 930.288C689.857 908.232 679.741 909.196 695.602 903.014C695.082 920.821 684.833 932.246 675.059 941.241C647.911 966.265 621.19 993.631 594.198 1019.19C568.222 1043.82 542.431 1069.36 516.726 1095.27C461.998 1150.45 407.627 1207.24 352.603 1260.24C180.876 1419.5 5.48273 1631.09 -37.9817 1864.69C-59.8582 1855.52 -56.7116 1792.74 -50.0141 1771.62C-28.2703 1703.49 2.63632 1642.22 39.6053 1584.86C127.187 1448.98 241.333 1332.31 358.868 1222.11C390.975 1192.02 429.007 1156.9 445.912 1139.92L666.508 930.288Z" fill="white" fill-opacity="0.03"/>
</svg>
