<svg width="27" height="44" viewBox="0 0 27 44" fill="none" xmlns="http://www.w3.org/2000/svg">
<path d="M13.6336 28.6123C15.0053 22.3686 18.2544 24.2494 17.7985 22.3686C16.6035 17.4394 21.4235 18.0858 17.7985 15.4678C13.6336 17.2751 13.6336 21.5471 13.6336 21.5471" stroke="#F5F5F5" stroke-linecap="round"/>
<path d="M13.3625 28.6123C11.9908 22.3686 8.74164 24.2494 9.1976 22.3686C10.3926 17.4394 5.57262 18.0858 9.1976 15.4678C13.3624 17.2751 13.3625 21.5471 13.3625 21.5471" stroke="#F5F5F5" stroke-linecap="round"/>
<path d="M10.3824 16.6167C10.1909 17.2869 10.2254 18.6848 13.2127 21.2124" stroke="#F5F5F5" stroke-linecap="round"/>
<path d="M16.3716 16.6167C16.5631 17.2869 16.4865 18.972 13.4992 21.4997" stroke="#F5F5F5" stroke-linecap="round"/>
<circle cx="13.5" cy="21.5" r="13" stroke="#F5F5F5"/>
</svg>
