<svg width="73" height="57" viewBox="0 0 73 57" fill="none" xmlns="http://www.w3.org/2000/svg">
<g clip-path="url(#clip0_9_9)">
<path fill-rule="evenodd" clip-rule="evenodd" d="M1.32283 8.59189C1.10256 8.27243 0.626438 7.58536 0.349397 7.45157C0.319876 8.55432 2.96313 11.6288 3.85707 12.5534C4.24312 12.9593 4.59433 13.3983 4.87668 13.681L8.16787 16.7322C14.2348 22.3895 21.842 27.2381 28.345 32.6683C30.226 34.2395 33.5187 37.3402 34.4565 39.3586C34.6019 39.706 34.8872 40.6276 35.0325 40.8492C35.1795 40.565 35.221 39.3285 35.159 38.9287C35.0613 38.295 34.81 37.8461 34.5732 37.3884C32.9979 34.3507 28.0286 30.3179 23.1841 26.8194C16.8909 22.2761 9.4789 17.8154 4.22723 12.1024C3.5596 11.3785 1.94428 9.49545 1.32283 8.59189Z" fill="#F5F5F5"/>
<path fill-rule="evenodd" clip-rule="evenodd" d="M34.5187 30.4443C34.623 30.2309 34.3968 29.3039 34.3672 28.8191C34.3203 27.9561 33.5127 26.8685 32.9139 26.3198C32.5293 25.9678 32.1631 25.6582 31.8648 25.3982C30.0352 23.8007 26.9067 21.9402 24.7168 20.7096C18.0089 16.7775 5.95455 10.7225 1.57563 4.4149C1.10329 3.73385 0.468973 2.43941 0.282009 2.19134C0.196378 2.08241 0.102767 1.9799 0.00193909 1.88464C-0.0215262 2.5266 0.170738 2.85661 0.428855 3.4016C1.39774 5.44548 3.99405 8.17419 7.29357 10.8007C14.3173 16.3949 24.527 22.244 29.002 25.074C30.7339 26.2603 33.0622 28.0659 34.1182 29.8903C34.2635 30.1436 34.4142 30.3864 34.5187 30.4443Z" fill="#F5F5F5"/>
<path fill-rule="evenodd" clip-rule="evenodd" d="M35.1182 35.2431C35.34 34.8356 34.9136 33.3143 34.6994 32.8182C33.9092 30.984 31.4773 29.1393 30.1676 28.0162C29.5138 27.4659 28.83 26.9518 28.1194 26.476C22.2743 22.492 16.2535 18.8281 10.3902 14.7816C8.27761 13.3233 4.75934 10.5322 3.10314 8.5056C1.81029 6.92324 0.191938 4.57265 0.036007 4.42081C-0.235735 5.01466 2.56874 8.686 3.13494 9.34524C6.07719 12.7746 11.7278 16.809 15.455 19.3625C20.2237 22.6294 24.9017 25.9648 29.5659 29.3813C30.9171 30.4758 33.1501 32.6077 34.3249 34.1847C34.53 34.4599 34.8796 35.1673 35.1182 35.2431Z" fill="#F5F5F5"/>
<path fill-rule="evenodd" clip-rule="evenodd" d="M33.3076 25.038C33.3831 24.9207 33.3831 24.7555 33.3711 24.6223C33.3006 23.9458 32.7194 22.943 32.3485 22.5123C28.9172 18.52 15.1022 12.9483 9.5644 9.19426C7.32007 7.67281 3.24771 4.95013 1.68614 2.67469C1.44846 2.32816 1.22364 1.97561 0.973095 1.58923C0.575698 0.977338 0.521954 0.601484 0.173004 0.422577C0.216907 0.703716 0.475781 1.3795 0.732385 1.98162C1.8186 4.53593 4.08943 6.19645 6.18845 7.93441C14.2938 14.6584 24.7677 17.448 33.3076 25.038Z" fill="#F5F5F5"/>
<path fill-rule="evenodd" clip-rule="evenodd" d="M2.70328 12.9293C2.4005 12.5692 2.05306 11.9941 1.62842 11.8679C1.65415 12.4617 2.14616 12.9571 2.43229 13.2863C3.44433 14.4492 3.58134 14.795 4.86436 16.1654L8.52494 19.8751C10.5808 21.9189 13.0076 23.8937 15.3026 25.6993C19.9805 29.5684 24.4912 33.2164 28.9208 37.3644C30.0078 38.3829 32.1756 40.7554 32.8221 41.8543C33.6199 43.2073 34.2361 44.2057 34.6865 45.6768C34.7864 46.0046 34.7348 45.9368 34.8606 46.118L34.9589 44.0132C34.9234 42.0633 32.3452 39.0939 29.8981 36.7389C27.7574 34.6792 24.6887 32.0273 22.3286 30.2419C20.8011 29.085 16.4925 25.431 15.2496 24.6244L10.0752 20.3764C7.35774 17.8327 5.19969 15.7422 2.70328 12.9293Z" fill="#F5F5F5"/>
<path fill-rule="evenodd" clip-rule="evenodd" d="M5.75468 19.0377C5.37619 18.6423 4.2105 17.1863 3.75784 16.972C3.8941 19.1242 21.2515 34.58 24.2658 37.3659C25.3106 38.3094 26.3002 39.3112 27.2299 40.3667C29.0686 42.4257 31.5816 45.2123 32.7775 47.5704C33.499 48.9874 33.673 51.3342 34.0825 52.0604C34.3097 51.789 34.5693 50.3389 34.5164 49.8804C34.458 49.3714 34.2399 48.6364 33.9811 47.9101C33.2197 45.7716 32.6429 45.0123 31.2697 43.2233C28.7424 39.933 24.1984 35.6776 20.8754 32.9579L15.2869 28.1004C11.9737 25.231 8.80894 22.1882 5.75468 19.0377Z" fill="#F5F5F5"/>
<path fill-rule="evenodd" clip-rule="evenodd" d="M32.085 20.6186C31.9813 19.1318 30.7339 17.705 29.3993 16.9135C22.792 12.9738 15.6706 10.5059 8.89521 6.61503C5.62598 4.74253 2.99635 3.31277 0.948057 0.150342C0.907565 0.0953433 0.861111 0.0449273 0.809535 0C0.795969 0.0198293 0.788117 0.0429632 0.786827 0.0669021C0.75882 0.704351 1.36438 1.65376 1.75269 2.09426C2.95018 3.44733 3.7548 4.09456 5.1877 5.17627C10.1192 8.89874 16.3398 11.6958 21.8405 14.6027C24.539 15.9024 28.4457 17.6937 30.7725 19.4829C31.5202 20.0617 31.7936 20.5344 32.085 20.6186Z" fill="#F5F5F5"/>
<path fill-rule="evenodd" clip-rule="evenodd" d="M9.35633 25.7181C8.57516 24.9808 8.91352 25.013 8.3829 24.8063C8.40031 25.4017 8.74321 25.7836 9.07021 26.0843C9.97854 26.9209 10.8732 27.8358 11.7755 28.6904C12.643 29.5128 13.5074 30.3691 14.3673 31.2327C16.2006 33.0752 18.0173 34.9763 19.8582 36.7481C25.6035 42.0731 31.4711 49.1467 32.9291 56.9563C33.661 56.6496 33.5559 54.5507 33.3319 53.8449C32.6081 51.5672 31.5727 49.5188 30.3328 47.6012C27.4026 43.0586 23.5839 39.1581 19.6515 35.474C18.5774 34.4681 17.305 33.294 16.7396 32.7265L9.35633 25.7181Z" fill="#F5F5F5"/>
<path fill-rule="evenodd" clip-rule="evenodd" d="M71.5492 8.59189C71.7694 8.27243 72.2456 7.58536 72.5226 7.45157C72.5521 8.55432 69.9089 11.6288 69.0149 12.5564C68.6265 12.9593 68.2776 13.3983 67.9952 13.6795L64.7041 16.7306C58.6386 22.3895 51.0298 27.2381 44.527 32.6706C42.646 34.2416 39.3533 37.3425 38.4153 39.3609C38.2701 39.7081 37.9848 40.6297 37.8393 40.8515C37.6925 40.5673 37.651 39.3308 37.713 38.9308C37.8105 38.2973 38.0618 37.8484 38.2988 37.3907C39.8741 34.3455 44.8434 30.3163 49.6879 26.8178C55.9811 22.2761 63.3931 17.8154 68.6446 12.1024C69.3101 11.3785 70.9276 9.49545 71.5492 8.59189Z" fill="#F5F5F5"/>
<path fill-rule="evenodd" clip-rule="evenodd" d="M38.3556 30.4443C38.2511 30.2309 38.4775 29.3039 38.5069 28.8191C38.5538 27.9561 39.3616 26.8685 39.9602 26.3198C40.3448 25.9678 40.7113 25.6582 41.0095 25.3982C42.8389 23.8007 45.9674 21.9402 48.1573 20.7096C54.8631 16.7775 66.9158 10.7225 71.2962 4.4149C71.7687 3.73385 72.403 2.43941 72.59 2.19134C72.6738 2.08252 72.7656 1.98002 72.8647 1.88464C72.8958 2.5266 72.7012 2.85661 72.4414 3.4016C71.4727 5.44548 68.8762 8.17419 65.5768 10.8007C58.5523 16.3949 48.3419 22.244 43.8677 25.074C42.1358 26.2603 39.8075 28.0659 38.7514 29.8903C38.6062 30.1436 38.4547 30.3864 38.3556 30.4443Z" fill="#F5F5F5"/>
<path fill-rule="evenodd" clip-rule="evenodd" d="M37.7538 35.2431C37.532 34.8356 37.9581 33.3143 38.1723 32.8182C38.9626 30.984 41.3947 29.1393 42.7041 28.0162C43.358 27.4659 44.0418 26.9518 44.7524 26.476C50.5977 22.492 56.6184 18.8281 62.4816 14.7816C64.595 13.3233 68.1133 10.5322 69.7687 8.5056C71.0615 6.92324 72.68 4.57265 72.8359 4.42081C73.1077 5.01466 70.3031 8.686 69.737 9.34524C66.7947 12.7746 61.1442 16.809 57.4169 19.3625C52.6481 22.6294 47.9703 25.9648 43.306 29.3813C41.9548 30.4758 39.7219 32.6077 38.5471 34.1847C38.3419 34.4599 37.9923 35.1673 37.7538 35.2431Z" fill="#F5F5F5"/>
<path fill-rule="evenodd" clip-rule="evenodd" d="M39.5591 25.038C39.4833 24.9207 39.4833 24.7555 39.4955 24.6223C39.5658 23.9458 40.1472 22.943 40.5181 22.5123C43.9554 18.52 57.7673 12.9483 63.3074 9.19426C65.5556 7.67281 69.6242 4.95013 71.1857 2.67469C71.4243 2.32816 71.6489 1.97561 71.8989 1.58923C72.2962 0.977338 72.353 0.601484 72.6989 0.422577C72.6549 0.703716 72.3961 1.3795 72.1395 1.98162C71.0571 4.53744 68.7779 6.19645 66.6835 7.93441C58.578 14.6584 48.1049 17.448 39.5591 25.038Z" fill="#F5F5F5"/>
<path fill-rule="evenodd" clip-rule="evenodd" d="M70.1708 12.9293C70.4735 12.5692 70.821 11.9941 71.2456 11.8679C71.2199 12.4617 70.7279 12.9571 70.4416 13.2863C69.4304 14.4492 69.2935 14.795 68.0097 16.1654L64.3424 19.8773C62.2871 21.9212 59.8596 23.896 57.5647 25.7016C52.8867 29.5705 48.3761 33.2187 43.9464 37.3667C42.8594 38.3852 40.6916 40.7575 40.0451 41.8566C39.2473 43.2096 38.6311 44.2078 38.1808 45.6791C38.0808 46.0067 38.1324 45.9391 38.0066 46.1203L37.9083 44.0155C37.9438 42.0656 40.5227 39.0962 42.9691 36.7412C45.1098 34.6815 48.1785 32.0294 50.5386 30.2442C52.0669 29.0873 56.3746 25.4331 57.6176 24.6267L62.792 20.3787C65.5141 17.8327 67.6729 15.7422 70.1708 12.9293Z" fill="#F5F5F5"/>
<path fill-rule="evenodd" clip-rule="evenodd" d="M67.1125 19.0377C67.4911 18.6446 68.6589 17.1863 69.1117 16.972C68.9753 19.1242 51.618 34.5786 48.6039 37.3659C47.561 38.3096 46.5734 39.3114 45.6456 40.3667C43.8071 42.4295 41.294 45.216 40.0943 47.5741C39.3728 48.991 39.1988 51.338 38.7893 52.064C38.5621 51.7926 38.3025 50.3427 38.3555 49.8842C38.4138 49.3752 38.6319 48.64 38.8907 47.914C39.6545 45.7752 40.2313 45.016 41.6043 43.2292C44.1318 39.9382 48.6734 35.6828 51.9948 32.9631L57.5834 28.1056C60.8981 25.231 64.0636 22.1882 67.1125 19.0377Z" fill="#F5F5F5"/>
<path fill-rule="evenodd" clip-rule="evenodd" d="M40.787 20.6186C40.8907 19.1318 42.1411 17.705 43.4725 16.912C50.08 12.9738 57.1959 10.5059 63.9767 6.61353C67.2467 4.74104 69.8755 3.31128 71.9245 0.148838C71.9653 0.0943997 72.0117 0.0444953 72.063 0C72.0773 0.0195211 72.0853 0.0428394 72.0858 0.0669021C72.1154 0.704351 71.5091 1.65376 71.12 2.09652C69.9224 3.44959 69.1179 4.09682 67.685 5.17852C62.7534 8.90098 56.533 11.6981 51.0321 14.605C48.3336 15.9047 44.4271 17.696 42.1003 19.485C41.3516 20.0617 41.0814 20.5344 40.787 20.6186Z" fill="#F5F5F5"/>
<path fill-rule="evenodd" clip-rule="evenodd" d="M63.5156 25.7181C64.2968 24.9808 63.9584 25.013 64.489 24.8063C64.4716 25.4017 64.1287 25.7836 63.8017 26.0843C62.8934 26.9209 61.9995 27.8358 61.0965 28.6904C60.2274 29.5135 59.3646 30.3676 58.5046 31.2335C56.6736 33.0782 54.8546 34.9771 53.0138 36.7489C47.2686 42.0731 41.4007 49.1467 39.9465 56.9563C39.2147 56.6496 39.3199 54.5507 39.544 53.8449C40.2714 51.5672 41.3054 49.5188 42.5423 47.6012C45.4723 43.0586 49.2912 39.1581 53.2234 35.474C54.2975 34.4681 55.5699 33.294 56.1355 32.7265L63.5156 25.7181Z" fill="#F5F5F5"/>
</g>
<defs>
<clipPath id="clip0_9_9">
<rect width="73" height="57" fill="white"/>
</clipPath>
</defs>
</svg>
